<?xml version="1.0" standalone="no"?>
<!DOCTYPE svg PUBLIC "-//W3C//DTD SVG 20010904//EN"
 "http://www.w3.org/TR/2001/REC-SVG-20010904/DTD/svg10.dtd">
<svg version="1.0" xmlns="http://www.w3.org/2000/svg"
 width="959.000000pt" height="959.000000pt" viewBox="0 0 959.000000 959.000000"
 preserveAspectRatio="xMidYMid meet">
<metadata>
Created by potrace 1.11, written by Peter Selinger 2001-2013
</metadata>
<g transform="translate(0.000000,959.000000) scale(0.100000,-0.100000)"
fill="#000000" stroke="none">
<path d="M0 8289 l0 -1302 293 7 c160 4 310 9 332 11 22 3 200 7 395 9 195 3
369 9 385 14 17 5 35 7 42 5 14 -5 134 26 150 39 7 5 16 7 21 4 5 -3 21 2 36
9 16 8 32 13 36 10 5 -3 11 -1 15 5 4 7 13 6 27 -1 11 -6 18 -7 15 -2 -3 4 17
8 44 8 29 0 51 -5 53 -12 3 -7 14 -10 25 -8 11 2 69 -12 127 -30 112 -36 244
-60 379 -70 44 -4 112 -10 150 -15 139 -18 299 -22 385 -10 47 6 145 14 218
17 l133 5 62 -31 c34 -17 81 -49 105 -72 38 -37 47 -50 43 -71 0 -5 3 -8 7 -8
8 0 24 -34 53 -107 16 -42 40 -158 38 -183 -3 -29 25 -160 52 -242 20 -63 75
-158 90 -158 6 0 7 -5 4 -10 -3 -6 1 -13 9 -16 9 -3 16 -10 16 -15 0 -5 10
-29 21 -54 l21 -45 -23 -57 c-16 -40 -43 -77 -89 -123 -76 -75 -106 -100 -121
-100 -6 0 -25 -10 -42 -22 -27 -19 -44 -22 -120 -22 -49 0 -92 5 -95 10 -8 11
-37 29 -72 46 -14 7 -28 16 -31 21 -3 5 -10 9 -15 10 -5 1 -8 6 -6 10 1 5 -2
6 -8 2 -5 -3 -24 0 -42 8 -39 17 -98 22 -98 8 0 -5 -10 -11 -21 -13 -12 -2
-27 -11 -33 -21 -6 -10 -32 -41 -59 -69 -26 -29 -47 -56 -47 -60 0 -4 -6 -8
-13 -8 -7 0 -26 -14 -43 -31 -16 -17 -44 -37 -61 -46 -18 -8 -33 -20 -33 -25
0 -5 -4 -7 -9 -3 -5 3 -20 1 -33 -4 -66 -26 -108 -35 -175 -35 -23 0 -40 -3
-38 -6 2 -3 -106 -6 -238 -7 -357 -4 -377 -4 -377 -11 0 -4 -21 -7 -47 -8 -48
0 -119 -7 -268 -24 -158 -19 -200 -23 -230 -23 -16 0 -113 -6 -215 -12 -102
-6 -207 -9 -234 -7 -27 2 -46 0 -43 -4 3 -5 -79 -10 -182 -12 -102 -1 -256 -7
-341 -13 -85 -6 -183 -10 -218 -9 l-62 1 0 -2655 0 -2656 1088 0 c598 0 1092
4 1097 8 13 9 40 66 55 115 6 20 16 37 21 37 5 0 9 8 9 18 0 10 3 22 7 26 4 3
8 17 10 29 2 12 10 42 18 67 8 25 17 77 21 115 3 39 9 75 13 80 4 6 9 28 10
50 2 22 11 54 22 71 10 17 19 39 19 49 0 10 3 15 6 12 4 -4 23 14 42 38 19 25
38 45 43 45 5 0 23 14 41 31 18 17 83 69 143 116 163 125 291 241 370 335 56
67 155 203 155 214 0 7 7 19 15 28 26 26 298 435 367 551 164 279 239 407 284
488 27 48 58 105 70 125 12 21 33 60 49 87 102 185 276 359 443 444 66 33 234
97 278 105 21 5 43 11 49 14 5 3 16 7 25 9 8 1 49 11 90 22 41 11 76 18 78 16
3 -2 22 5 44 16 21 11 44 19 51 17 20 -4 67 12 67 23 0 6 10 8 23 5 12 -3 17
-3 10 0 -7 3 -9 12 -6 20 4 12 8 12 13 4 5 -8 19 -1 44 23 20 19 36 38 36 41
0 11 49 54 55 48 3 -4 3 0 0 9 -3 8 1 31 9 50 11 24 15 28 16 14 1 -14 5 -10
16 15 12 26 14 54 11 107 -4 46 -2 73 5 75 8 3 7 11 -1 25 -13 26 -15 85 -1
99 15 15 24 242 11 308 -6 33 -15 62 -19 65 -12 8 -32 69 -32 97 0 13 -4 24
-8 24 -4 0 -8 8 -9 18 -5 70 -33 148 -71 193 -9 11 -25 30 -34 41 -9 11 -38
35 -64 53 -141 100 -225 222 -225 325 0 113 13 175 80 380 22 69 43 151 47
182 6 50 3 64 -21 113 -34 71 -134 170 -251 252 -49 35 -100 70 -114 80 -14
10 -31 17 -37 15 -7 -2 -13 2 -13 8 0 5 -3 9 -7 8 -5 -1 -25 4 -46 11 -21 7
-47 11 -57 8 -11 -3 -20 -1 -22 3 -2 5 -46 13 -98 19 -64 7 -99 16 -106 26 -6
8 -16 15 -21 15 -16 0 -33 42 -32 80 0 59 -12 130 -23 130 -6 0 -8 14 -6 30 3
17 2 30 -2 30 -8 0 -60 154 -60 176 0 8 -3 13 -7 11 -14 -9 -5 197 10 245 8
26 12 49 9 52 -3 4 -1 6 5 6 6 0 14 12 17 26 10 37 99 156 149 197 79 64 147
97 337 161 186 63 327 120 385 156 31 18 402 191 420 195 6 1 30 11 55 22 25
11 74 31 110 44 36 12 67 27 68 31 2 5 8 6 13 3 5 -3 17 -1 28 5 11 5 33 11
48 13 16 2 34 6 39 10 6 3 32 5 57 3 26 -1 47 2 47 7 0 12 204 1 265 -13 57
-14 195 -13 195 1 0 6 7 9 15 5 8 -3 35 3 59 14 24 10 48 15 52 12 4 -4 4 -1
-1 7 -5 9 -1 19 11 29 16 12 16 14 2 9 -15 -5 -16 -2 -7 21 6 15 16 30 22 34
9 6 9 10 0 16 -9 6 -8 12 7 25 25 21 37 67 20 77 -22 14 9 77 44 92 17 6 37
11 44 11 6 0 12 4 12 9 0 12 53 1 97 -20 18 -8 30 -19 27 -24 -3 -5 -2 -8 3
-7 18 3 30 -2 51 -21 12 -12 22 -18 22 -15 0 2 11 -5 25 -17 13 -11 22 -25 19
-30 -3 -5 0 -7 6 -6 14 3 150 -159 150 -179 0 -7 7 -13 15 -13 8 0 15 -3 14
-7 -2 -16 14 -53 22 -53 5 0 9 -9 9 -19 0 -10 7 -22 16 -25 8 -3 13 -10 10
-14 -3 -5 3 -18 13 -29 10 -11 22 -29 25 -41 4 -12 11 -20 16 -17 5 3 14 -10
20 -29 6 -19 16 -37 23 -40 9 -3 9 -5 0 -5 -6 -1 6 -18 27 -40 21 -21 50 -57
64 -79 14 -23 37 -49 51 -58 13 -9 27 -23 30 -32 6 -19 73 -53 152 -78 41 -13
78 -15 177 -11 69 3 129 7 133 10 4 3 37 8 73 11 36 4 79 11 95 16 26 8 75 18
165 34 14 3 68 14 120 25 118 27 123 27 415 40 135 6 299 19 375 31 74 11 219
23 323 27 l187 6 0 1069 0 1068 -4795 0 -4795 0 0 -1301z m5463 15 c15 -20 16
-28 7 -39 -7 -8 -17 -12 -23 -8 -6 4 -8 0 -5 -8 4 -11 -6 -13 -56 -11 -33 2
-68 10 -76 17 -8 7 -25 16 -38 20 -22 6 -23 8 -7 25 18 20 47 26 130 28 43 1
53 -2 68 -24z m-146 -4646 c-3 -7 -5 -2 -5 12 0 14 2 19 5 13 2 -7 2 -19 0
-25z"/>
<path d="M9275 6099 c-33 -3 -203 -5 -377 -5 -175 1 -318 -1 -318 -5 0 -3 -24
-10 -52 -13 -29 -4 -58 -12 -65 -18 -7 -6 -13 -8 -13 -4 0 7 -161 -74 -170
-85 -3 -4 -70 -50 -150 -102 -166 -109 -232 -156 -276 -195 -41 -36 -127 -156
-160 -223 -15 -30 -33 -58 -41 -62 -7 -5 -11 -13 -7 -18 3 -5 1 -15 -4 -22 -5
-7 -13 -23 -17 -37 -13 -42 -121 -255 -153 -302 -33 -48 -146 -159 -207 -203
-42 -31 -155 -140 -155 -150 0 -3 -9 -16 -20 -28 -52 -55 -65 -245 -25 -362
69 -200 212 -419 397 -604 167 -169 314 -266 490 -324 93 -31 163 -44 288 -52
365 -25 400 -43 573 -302 48 -70 105 -151 126 -179 67 -87 406 -421 510 -503
48 -38 121 -81 136 -81 3 0 5 875 5 1945 l0 1945 -127 -3 c-71 -1 -155 -5
-188 -8z"/>
<path d="M5720 6081 c-47 -9 -102 -23 -124 -30 -110 -37 -242 -151 -290 -250
-23 -49 -25 -58 -14 -100 6 -25 17 -58 25 -74 13 -26 126 -170 167 -214 12
-12 41 -45 66 -75 41 -49 129 -128 170 -153 10 -5 29 -18 44 -29 17 -12 50
-20 94 -23 90 -7 150 18 271 110 118 90 286 195 373 234 43 19 149 93 197 137
57 54 111 138 111 174 0 34 -45 92 -71 92 -11 0 -19 4 -19 10 0 5 -3 9 -7 8
-13 -3 -116 13 -127 20 -6 3 -15 7 -21 9 -115 26 -142 35 -265 90 -25 11 -63
26 -85 32 -22 7 -47 15 -55 18 -8 3 -26 8 -40 10 -14 2 -32 6 -40 10 -8 3 -73
7 -145 9 -95 2 -153 -2 -215 -15z"/>
<path d="M5376 3083 c-8 -8 -13 -9 -59 -11 -16 -1 -26 -6 -23 -11 3 -5 -8 -14
-24 -21 -17 -7 -30 -18 -30 -25 0 -8 -4 -15 -8 -17 -11 -4 -56 -70 -58 -85 -1
-7 -9 -20 -18 -29 -9 -8 -16 -24 -16 -35 0 -10 -4 -19 -10 -19 -5 0 -9 -3 -8
-7 2 -5 -12 -23 -30 -41 -17 -18 -32 -37 -32 -42 0 -5 -22 -36 -50 -69 -27
-33 -50 -62 -50 -65 0 -6 -36 -59 -72 -107 -16 -20 -28 -38 -28 -41 0 -3 -17
-37 -38 -75 -21 -38 -51 -109 -66 -159 -16 -49 -32 -100 -36 -114 -5 -14 -14
-63 -20 -110 -6 -47 -15 -110 -20 -140 -5 -30 -12 -89 -15 -130 -4 -41 -10
-86 -14 -100 -10 -30 -44 -143 -66 -219 -24 -81 -46 -214 -36 -220 5 -4 9 -19
9 -36 0 -16 3 -55 6 -85 14 -107 18 -242 11 -350 -4 -66 -27 -200 -35 -200 -4
0 -6 -14 -4 -30 2 -17 -3 -50 -11 -74 -8 -24 -17 -69 -20 -100 -3 -31 -10 -67
-15 -80 -4 -13 -12 -57 -15 -97 -4 -41 -11 -89 -15 -106 l-8 -33 319 0 c283 0
319 2 319 16 0 13 12 110 60 504 13 101 54 365 74 470 7 41 16 94 20 118 3 24
8 47 10 51 3 4 7 18 10 32 2 13 16 75 30 138 14 62 26 122 26 132 0 11 4 27 9
37 5 9 17 51 26 92 32 149 118 385 168 464 7 11 27 33 44 49 19 16 30 34 26
41 -4 6 2 4 12 -4 10 -8 16 -10 12 -3 -11 17 42 63 73 63 12 0 18 5 15 10 -3
6 3 10 15 10 12 0 19 4 16 8 -2 4 4 8 14 9 11 1 36 13 57 27 21 14 42 26 48
26 6 0 28 16 50 35 22 19 44 35 49 35 11 0 46 40 46 52 0 4 5 8 11 8 13 0 33
21 37 40 2 8 11 19 19 24 13 7 13 10 2 17 -11 7 -10 9 4 9 12 0 17 8 17 30 0
17 4 30 9 30 6 0 10 8 10 18 4 109 -2 209 -13 219 -3 4 -6 11 -6 17 0 6 5 4
10 -4 8 -12 10 -11 10 5 0 11 -7 31 -16 43 -8 12 -12 22 -9 22 3 0 -4 18 -16
40 -13 22 -27 40 -31 40 -5 0 -19 9 -31 20 -15 15 -30 19 -47 15 -16 -4 -20
-3 -12 3 10 7 8 11 -10 15 -31 9 -46 8 -31 -1 6 -4 -22 -7 -63 -7 -77 0 -101
11 -36 17 20 2 -15 4 -78 5 -85 1 -133 7 -185 22 -77 23 -121 28 -95 11 11 -8
7 -9 -15 -4 -16 4 -31 11 -33 16 -4 10 -16 10 -26 1z"/>
<path d="M3405 129 c-35 -10 -100 -74 -108 -106 l-5 -23 145 0 144 0 -6 23
c-11 35 -32 64 -68 91 -36 27 -53 30 -102 15z"/>
</g>
</svg>
